<svg width="30" height="30" viewBox="0 0 30 30" fill="none" xmlns="http://www.w3.org/2000/svg">
<path d="M22.5 6.25L19.4825 3.2325C19.0138 2.76363 18.378 2.50014 17.715 2.5H7.5C6.83696 2.5 6.20107 2.76339 5.73223 3.23223C5.26339 3.70107 5 4.33696 5 5V25C5 25.663 5.26339 26.2989 5.73223 26.7678C6.20107 27.2366 6.83696 27.5 7.5 27.5H22.5C23.163 27.5 23.7989 27.2366 24.2678 26.7678C24.7366 26.2989 25 25.663 25 25" stroke="#0060B1" stroke-width="2" stroke-linecap="round" stroke-linejoin="round"/>
<path d="M26.7225 15.7825C27.2204 15.2846 27.5002 14.6092 27.5002 13.905C27.5002 13.2008 27.2204 12.5254 26.7225 12.0275C26.2246 11.5296 25.5492 11.2498 24.845 11.2498C24.1408 11.2498 23.4654 11.5296 22.9675 12.0275L17.955 17.0425C17.6578 17.3395 17.4403 17.7067 17.3225 18.11L16.2763 21.6975C16.2449 21.8051 16.243 21.9191 16.2708 22.0276C16.2986 22.1362 16.3551 22.2352 16.4343 22.3144C16.5135 22.3937 16.6126 22.4501 16.7211 22.4779C16.8297 22.5058 16.9437 22.5039 17.0513 22.4725L20.6388 21.4263C21.0421 21.3085 21.4092 21.0909 21.7063 20.7938L26.7225 15.7825Z" stroke="#0060B1" stroke-width="2" stroke-linecap="round" stroke-linejoin="round"/>
<path d="M10 22.5H11.25" stroke="#0060B1" stroke-width="2" stroke-linecap="round" stroke-linejoin="round"/>
</svg>
