<svg width="24" height="24" viewBox="0 0 24 24" fill="none" xmlns="http://www.w3.org/2000/svg">
<path d="M2.50273 23.25C1.94582 23.25 1.46901 23.046 1.07229 22.6381C0.675773 22.23 0.477514 21.7395 0.477514 21.1666V2.83344C0.477514 2.26052 0.675773 1.77 1.07229 1.36188C1.46901 0.953959 1.94582 0.75 2.50273 0.75H20.3235C20.5665 0.75 20.7893 0.796875 20.9918 0.890625C21.1943 0.984375 21.3664 1.09719 21.5082 1.22906L19.8678 2.91656V2.83344H2.50273V21.1666H20.3235V11.25L22.3487 9.16656V21.1666C22.3487 21.7395 22.1504 22.23 21.7539 22.6381C21.3572 23.046 20.8804 23.25 20.3235 23.25H2.50273ZM10.836 18.0834L4.05193 11.1041L5.46931 9.64594L10.836 15.1666L22.2879 3.38531L23.7157 4.83344L10.836 18.0834Z" fill="#008000" fill-opacity="0.8"/>
</svg>
