<svg width="40" height="41" viewBox="0 0 40 41" fill="none" xmlns="http://www.w3.org/2000/svg">
<path d="M9.41659 29.4383C11.0555 28.258 12.7406 27.3448 14.472 26.6987C16.2037 26.0526 18.0463 25.7296 19.9999 25.7296C21.9535 25.7296 23.8008 26.0526 25.5416 26.6987C27.2824 27.3448 28.9723 28.258 30.6112 29.4383C31.7501 28.0533 32.581 26.6079 33.1041 25.1022C33.6271 23.5965 33.8887 22.0025 33.8887 20.3203C33.8887 16.3887 32.5531 13.0821 29.882 10.4005C27.2106 7.71924 23.9166 6.37859 19.9999 6.37859C16.0833 6.37859 12.7892 7.71924 10.1178 10.4005C7.44672 13.0821 6.11117 16.3887 6.11117 20.3203C6.11117 22.0025 6.37728 23.5965 6.9095 25.1022C7.442 26.6079 8.2777 28.0533 9.41659 29.4383ZM19.9949 21.7143C18.378 21.7143 17.0162 21.1574 15.9095 20.0434C14.8031 18.9292 14.2499 17.5605 14.2499 15.9374C14.2499 14.3143 14.8049 12.9474 15.9149 11.8368C17.0246 10.7259 18.388 10.1705 20.0049 10.1705C21.6219 10.1705 22.9837 10.7276 24.0903 11.8418C25.1967 12.9561 25.7499 14.3248 25.7499 15.9479C25.7499 17.571 25.1949 18.9378 24.0849 20.0484C22.9752 21.159 21.6119 21.7143 19.9949 21.7143ZM20.0128 37.0505C17.7173 37.0505 15.5556 36.6114 13.5278 35.733C11.5001 34.8547 9.73145 33.6581 8.222 32.1431C6.71284 30.6279 5.52075 28.8548 4.64575 26.8238C3.77075 24.7927 3.33325 22.6224 3.33325 20.3128C3.33325 18.0034 3.77075 15.8356 4.64575 13.8093C5.52075 11.7833 6.71284 10.0127 8.222 8.49748C9.73145 6.98256 11.4978 5.78593 13.5212 4.90759C15.5445 4.02925 17.7066 3.59008 20.0074 3.59008C22.308 3.59008 24.4676 4.02925 26.4862 4.90759C28.5045 5.78593 30.2684 6.98256 31.7778 8.49748C33.287 10.0127 34.4791 11.7836 35.3541 13.8102C36.2291 15.837 36.6666 18.0028 36.6666 20.3073C36.6666 22.6116 36.2291 24.7816 35.3541 26.8171C34.4791 28.8526 33.287 30.6279 31.7778 32.1431C30.2684 33.6581 28.5042 34.8547 26.4853 35.733C24.4662 36.6114 22.3087 37.0505 20.0128 37.0505ZM19.9999 34.262C21.5091 34.262 22.9674 34.0413 24.3749 33.5999C25.7824 33.1585 27.1389 32.4312 28.4445 31.4179C27.1389 30.4793 25.7778 29.7613 24.3612 29.2639C22.9445 28.7667 21.4908 28.5181 19.9999 28.5181C18.5091 28.5181 17.0553 28.7667 15.6387 29.2639C14.222 29.7613 12.8609 30.4793 11.5553 31.4179C12.8609 32.4312 14.2174 33.1585 15.6249 33.5999C17.0324 34.0413 18.4908 34.262 19.9999 34.262ZM19.9999 18.9263C20.8702 18.9263 21.5831 18.6474 22.1387 18.0897C22.6942 17.5321 22.972 16.8163 22.972 15.9424C22.972 15.0688 22.6942 14.3532 22.1387 13.7955C21.5831 13.2378 20.8702 12.959 19.9999 12.959C19.1296 12.959 18.4167 13.2378 17.8612 13.7955C17.3056 14.3532 17.0278 15.0688 17.0278 15.9424C17.0278 16.8163 17.3056 17.5321 17.8612 18.0897C18.4167 18.6474 19.1296 18.9263 19.9999 18.9263Z" fill="#0060B1"/>
</svg>
