<svg width="40" height="40" viewBox="0 0 40 40" fill="none" xmlns="http://www.w3.org/2000/svg">
<path d="M34.7221 36.6667L30.1667 32.1112C29.5742 32.5462 28.9307 32.8587 28.2362 33.0487C27.5418 33.2385 26.8335 33.3333 26.1112 33.3333C24.1049 33.3333 22.3996 32.6308 20.9954 31.2258C19.591 29.8208 18.8887 28.1149 18.8887 26.1079C18.8887 24.1007 19.5912 22.3957 20.9962 20.9929C22.4012 19.5901 24.1074 18.8887 26.1146 18.8887C28.1215 18.8887 29.8264 19.591 31.2292 20.9954C32.6319 22.3996 33.3333 24.1049 33.3333 26.1112C33.3333 26.8335 33.2385 27.5464 33.0487 28.25C32.8587 28.9536 32.5462 29.5925 32.1112 30.1667L36.6667 34.7221L34.7221 36.6667ZM26.1071 30.5554C27.3504 30.5554 28.4026 30.1262 29.2637 29.2679C30.1249 28.4093 30.5554 27.3583 30.5554 26.115C30.5554 24.8717 30.1262 23.8194 29.2679 22.9583C28.4093 22.0972 27.3583 21.6667 26.115 21.6667C24.8717 21.6667 23.8194 22.096 22.9583 22.9546C22.0972 23.8129 21.6667 24.8637 21.6667 26.1071C21.6667 27.3504 22.096 28.4026 22.9546 29.2637C23.8129 30.1248 24.8637 30.5554 26.1071 30.5554ZM35 17.5H32.2221V7.77791H29.4446V11.9446H10.5554V7.77791H7.77792V32.2221H17.5V35H7.77792C6.99069 35 6.33097 34.7337 5.79875 34.2012C5.26625 33.669 5 33.0093 5 32.2221V7.77791C5 6.99068 5.26625 6.33096 5.79875 5.79874C6.33097 5.26624 6.99069 4.99999 7.77792 4.99999H15.7083C15.9397 4.02777 16.4582 3.22916 17.2637 2.60416C18.0693 1.97916 18.9814 1.66666 20 1.66666C21.0369 1.66666 21.956 1.97916 22.7571 2.60416C23.5579 3.22916 24.074 4.02777 24.3054 4.99999H32.2221C33.0093 4.99999 33.669 5.26624 34.2012 5.79874C34.7337 6.33096 35 6.99068 35 7.77791V17.5ZM20 7.77791C20.4722 7.77791 20.8681 7.61818 21.1875 7.29874C21.5069 6.97929 21.6667 6.58346 21.6667 6.11124C21.6667 5.63902 21.5069 5.24318 21.1875 4.92374C20.8681 4.60429 20.4722 4.44457 20 4.44457C19.5278 4.44457 19.1319 4.60429 18.8125 4.92374C18.4931 5.24318 18.3333 5.63902 18.3333 6.11124C18.3333 6.58346 18.4931 6.97929 18.8125 7.29874C19.1319 7.61818 19.5278 7.77791 20 7.77791Z" fill="#0060B1"/>
</svg>
