<svg width="34" height="30" viewBox="0 0 34 30" fill="none" xmlns="http://www.w3.org/2000/svg">
<path id="Vector" d="M15 30V27.2221H28.8888V14.8333C28.8888 11.4594 27.7029 8.5975 25.3313 6.2475C22.9596 3.89722 20.0714 2.72208 16.6667 2.72208C13.2619 2.72208 10.3738 3.89722 8.00208 6.2475C5.63042 8.5975 4.44458 11.4594 4.44458 14.8333V25H3.33333C2.41667 25 1.63194 24.6736 0.979167 24.0208C0.326389 23.3681 0 22.5833 0 21.6667V18.3333C0 17.75 0.145833 17.2014 0.4375 16.6875C0.729167 16.1736 1.13889 15.7639 1.66667 15.4583L1.79167 13.25C2.01389 11.3611 2.5625 9.61111 3.4375 8C4.3125 6.38889 5.40972 4.98611 6.72917 3.79167C8.04861 2.59722 9.5625 1.66667 11.2708 1C12.9792 0.333333 14.7778 0 16.6667 0C18.5556 0 20.3472 0.333333 22.0417 1C23.7361 1.66667 25.25 2.59028 26.5833 3.77083C27.9167 4.95139 29.0139 6.34722 29.875 7.95833C30.7361 9.56944 31.2917 11.3194 31.5417 13.2083L31.6667 15.375C32.1944 15.625 32.6042 16 32.8958 16.5C33.1875 17 33.3333 17.5278 33.3333 18.0833V21.9167C33.3333 22.4722 33.1875 23 32.8958 23.5C32.6042 24 32.1944 24.375 31.6667 24.625V27.2221C31.6667 27.986 31.3947 28.64 30.8508 29.1842C30.3067 29.7281 29.6526 30 28.8888 30H15ZM11.6617 18.0554C11.2669 18.0554 10.9376 17.9219 10.6738 17.655C10.4099 17.3878 10.2779 17.0567 10.2779 16.6617C10.2779 16.2669 10.4114 15.9376 10.6783 15.6738C10.9456 15.4099 11.2767 15.2779 11.6717 15.2779C12.0664 15.2779 12.3957 15.4114 12.6596 15.6783C12.9235 15.9456 13.0554 16.2767 13.0554 16.6717C13.0554 17.0664 12.9219 17.3957 12.655 17.6596C12.3878 17.9235 12.0567 18.0554 11.6617 18.0554ZM21.6617 18.0554C21.2669 18.0554 20.9376 17.9219 20.6738 17.655C20.4099 17.3878 20.2779 17.0567 20.2779 16.6617C20.2779 16.2669 20.4114 15.9376 20.6783 15.6738C20.9456 15.4099 21.2767 15.2779 21.6717 15.2779C22.0664 15.2779 22.3957 15.4114 22.6596 15.6783C22.9235 15.9456 23.0554 16.2767 23.0554 16.6717C23.0554 17.0664 22.9219 17.3957 22.655 17.6596C22.3878 17.9235 22.0567 18.0554 21.6617 18.0554ZM6.70833 15.75C6.51389 12.8056 7.40278 10.2778 9.375 8.16667C11.3472 6.05556 13.8056 5 16.75 5C19.1853 5 21.3079 5.79403 23.1179 7.38208C24.9282 8.96986 26.0278 10.9675 26.4167 13.375C23.9258 13.3472 21.6457 12.6574 19.5763 11.3054C17.5068 9.95375 15.9093 8.1575 14.7838 5.91667C14.3446 8.13889 13.4097 10.1181 11.9792 11.8542C10.5486 13.5903 8.79167 14.8889 6.70833 15.75Z" fill="#0060B1"/>
</svg>
