<svg width="30" height="31" viewBox="0 0 30 31" fill="none" xmlns="http://www.w3.org/2000/svg">
<path d="M27.5398 30.75L16.912 19.6744C16.0924 20.3956 15.141 20.9604 14.058 21.3687C12.975 21.7767 11.8226 21.9807 10.6008 21.9807C7.63807 21.9807 5.13052 20.9106 3.07815 18.7703C1.02605 16.6303 0 14.0371 0 10.9906C0 7.94403 1.02687 5.35064 3.08061 3.21038C5.13407 1.07013 7.62714 0 10.5598 0C13.4922 0 15.9806 1.07013 18.0251 3.21038C20.0698 5.35064 21.0921 7.94546 21.0921 10.9948C21.0921 12.2257 20.9009 13.4059 20.5184 14.5354C20.1359 15.6646 19.5803 16.7038 18.8517 17.6531L29.507 28.7L27.5398 30.75ZM10.5733 19.1333C12.7364 19.1333 14.5748 18.3385 16.0887 16.7489C17.6028 15.1593 18.3599 13.2399 18.3599 10.9906C18.3599 8.74126 17.6028 6.82166 16.0887 5.23177C14.5748 3.64217 12.7364 2.84736 10.5733 2.84736C8.39528 2.84736 6.54385 3.64217 5.01905 5.23177C3.49453 6.82166 2.73226 8.74126 2.73226 10.9906C2.73226 13.2399 3.49453 15.1593 5.01905 16.7489C6.54385 18.3385 8.39528 19.1333 10.5733 19.1333Z" fill="#929292"/>
</svg>
