<svg width="40" height="40" viewBox="0 0 40 40" fill="none" xmlns="http://www.w3.org/2000/svg">
<path d="M32.5398 35.75L21.912 24.6744C21.0924 25.3956 20.141 25.9604 19.058 26.3687C17.975 26.7767 16.8226 26.9807 15.6008 26.9807C12.6381 26.9807 10.1305 25.9106 8.07815 23.7703C6.02605 21.6303 5 19.0371 5 15.9906C5 12.944 6.02687 10.3506 8.08061 8.21038C10.1341 6.07013 12.6271 5 15.5598 5C18.4922 5 20.9806 6.07013 23.0251 8.21038C25.0698 10.3506 26.0921 12.9455 26.0921 15.9948C26.0921 17.2257 25.9009 18.4059 25.5184 19.5354C25.1359 20.6646 24.5803 21.7038 23.8517 22.6531L34.507 33.7L32.5398 35.75ZM15.5733 24.1333C17.7364 24.1333 19.5748 23.3385 21.0887 21.7489C22.6028 20.1593 23.3599 18.2399 23.3599 15.9906C23.3599 13.7413 22.6028 11.8217 21.0887 10.2318C19.5748 8.64217 17.7364 7.84736 15.5733 7.84736C13.3953 7.84736 11.5439 8.64217 10.0191 10.2318C8.49453 11.8217 7.73226 13.7413 7.73226 15.9906C7.73226 18.2399 8.49453 20.1593 10.0191 21.7489C11.5439 23.3385 13.3953 24.1333 15.5733 24.1333Z" fill="#0060B1"/>
</svg>
