<svg width="30" height="30" viewBox="0 0 30 30" fill="none" xmlns="http://www.w3.org/2000/svg">
<g id="content_paste_search_35dp_E3E3E3_FILL0_wght400_GRAD0_opsz40 1">
<path id="Vector" d="M26.0416 27.5L22.625 24.0834C22.1806 24.4097 21.698 24.6441 21.1772 24.7866C20.6564 24.9289 20.1251 25 19.5834 25C18.0786 25 16.7997 24.4731 15.7466 23.4194C14.6932 22.3656 14.1666 21.0861 14.1666 19.5809C14.1666 18.0755 14.6934 16.7968 15.7472 15.7447C16.8009 14.6926 18.0805 14.1666 19.5859 14.1666C21.0911 14.1666 22.3698 14.6932 23.4219 15.7466C24.474 16.7997 25 18.0786 25 19.5834C25 20.1251 24.9289 20.6598 24.7866 21.1875C24.6441 21.7152 24.4097 22.1944 24.0834 22.625L27.5 26.0416L26.0416 27.5ZM19.5803 22.9166C20.5128 22.9166 21.302 22.5947 21.9478 21.9509C22.5936 21.307 22.9166 20.5188 22.9166 19.5863C22.9166 18.6537 22.5947 17.8646 21.9509 17.2188C21.307 16.5729 20.5188 16.25 19.5863 16.25C18.6538 16.25 17.8646 16.572 17.2188 17.2159C16.5729 17.8597 16.25 18.6478 16.25 19.5803C16.25 20.5128 16.572 21.302 17.2159 21.9478C17.8597 22.5936 18.6478 22.9166 19.5803 22.9166ZM26.25 13.125H24.1666V5.83344H22.0834V8.95844H7.91656V5.83344H5.83344V24.1666H13.125V26.25H5.83344C5.24302 26.25 4.74823 26.0503 4.34906 25.6509C3.94969 25.2518 3.75 24.757 3.75 24.1666V5.83344C3.75 5.24302 3.94969 4.74823 4.34906 4.34906C4.74823 3.94969 5.24302 3.75 5.83344 3.75H11.7812C11.9548 3.02083 12.3436 2.42188 12.9478 1.95312C13.552 1.48438 14.236 1.25 15 1.25C15.7777 1.25 16.467 1.48438 17.0678 1.95312C17.6684 2.42188 18.0555 3.02083 18.2291 3.75H24.1666C24.757 3.75 25.2518 3.94969 25.6509 4.34906C26.0503 4.74823 26.25 5.24302 26.25 5.83344V13.125ZM15 5.83344C15.3542 5.83344 15.651 5.71365 15.8906 5.47406C16.1302 5.23448 16.25 4.9376 16.25 4.58344C16.25 4.22927 16.1302 3.9324 15.8906 3.69281C15.651 3.45323 15.3542 3.33344 15 3.33344C14.6458 3.33344 14.349 3.45323 14.1094 3.69281C13.8698 3.9324 13.75 4.22927 13.75 4.58344C13.75 4.9376 13.8698 5.23448 14.1094 5.47406C14.349 5.71365 14.6458 5.83344 15 5.83344Z" fill="#0060B1" fill-opacity="0.8"/>
</g>
</svg>
