<svg width="40" height="40" viewBox="0 0 40 40" fill="none" xmlns="http://www.w3.org/2000/svg">
<path d="M28.6946 34.8054L30.8054 32.6667L27.3333 29.1946L25.1946 31.3054C24.6946 31.8054 24.4492 32.3887 24.4583 33.0554C24.4675 33.7221 24.7129 34.3054 25.1946 34.8054C25.6946 35.2871 26.2779 35.5325 26.9446 35.5417C27.6113 35.5508 28.1946 35.3054 28.6946 34.8054ZM32.7221 30.75L34.8613 28.6387C35.3613 28.1387 35.6065 27.5554 35.5971 26.8887C35.5879 26.2221 35.3333 25.6387 34.8333 25.1387C34.3333 24.6387 33.7567 24.3887 33.1033 24.3887C32.45 24.3887 31.8693 24.6387 31.3613 25.1387L29.25 27.2779L32.7221 30.75ZM30.6529 36.7637C29.6251 37.7915 28.389 38.3054 26.9446 38.3054C25.5001 38.3054 24.264 37.7915 23.2363 36.7637C22.2085 35.736 21.6946 34.4999 21.6946 33.0554C21.6946 31.611 22.2085 30.3749 23.2363 29.3471L29.4029 23.1804C30.4307 22.1526 31.6668 21.6387 33.1113 21.6387C34.5557 21.6387 35.7918 22.1526 36.8196 23.1804C37.8474 24.2082 38.3613 25.4443 38.3613 26.8887C38.3613 28.3332 37.8474 29.5693 36.8196 30.5971L30.6529 36.7637ZM7.77792 35C7.01403 35 6.36 34.728 5.81583 34.1842C5.27194 33.64 5 32.986 5 32.2221V7.77791C5 7.01402 5.27194 6.35999 5.81583 5.81582C6.36 5.27194 7.01403 4.99999 7.77792 4.99999H15.8054C16.0185 4.0186 16.5163 3.21763 17.2988 2.59707C18.081 1.9768 18.9814 1.66666 20 1.66666C21.0186 1.66666 21.919 1.9768 22.7013 2.59707C23.4838 3.21763 23.9815 4.0186 24.1946 4.99999H32.2221C32.986 4.99999 33.64 5.27194 34.1842 5.81582C34.7281 6.35999 35 7.01402 35 7.77791V19.0696C34.5369 18.949 34.074 18.8796 33.6113 18.8612C33.1482 18.8426 32.6851 18.8657 32.2221 18.9304V7.77791H7.77792V32.2221H18.9583C18.9119 32.6851 18.9026 33.1482 18.9304 33.6112C18.9582 34.074 19.0324 34.5369 19.1529 35H7.77792ZM20 6.88874C20.3797 6.88874 20.7061 6.75221 20.9792 6.47916C21.2522 6.2061 21.3888 5.87971 21.3888 5.49999C21.3888 5.12027 21.2522 4.79388 20.9792 4.52082C20.7061 4.24777 20.3797 4.11124 20 4.11124C19.6203 4.11124 19.2939 4.24777 19.0208 4.52082C18.7478 4.79388 18.6113 5.12027 18.6113 5.49999C18.6113 5.87971 18.7478 6.2061 19.0208 6.47916C19.2939 6.75221 19.6203 6.88874 20 6.88874ZM11.6667 14.4446V11.6667H28.3333V14.4446H11.6667ZM11.6667 21.3887V18.6112H28.3333V20.4446C28.2036 20.5279 28.0717 20.6274 27.9375 20.7429C27.8033 20.8587 27.6714 20.9815 27.5417 21.1112L27.2638 21.3887H11.6667ZM11.6667 28.3333V25.5554H23.0971L21.25 27.4029C21.0833 27.5696 20.9375 27.7246 20.8125 27.8679C20.6875 28.0115 20.5649 28.1667 20.4446 28.3333H11.6667Z" fill="#E6E6E6"/>
</svg>
